<?xml version="1.0" encoding="utf-8"?>
<!-- Svg Vector Icons : http://www.onlinewebfonts.com/icon -->
<!DOCTYPE svg PUBLIC "-//W3C//DTD SVG 1.1//EN" "http://www.w3.org/Graphics/SVG/1.1/DTD/svg11.dtd">
<svg version="1.1" xmlns="http://www.w3.org/2000/svg" xmlns:xlink="http://www.w3.org/1999/xlink" x="0px" y="0px" viewBox="0 0 1000 1000" enable-background="new 0 0 1000 1000" xml:space="preserve">
<metadata> Svg Vector Icons : http://www.onlinewebfonts.com/icon </metadata>
<g><path d="M10,180.9c0,37.8,30.6,68.4,68.4,68.4c37.8,0,68.4-30.6,68.4-68.4c0-37.8-30.6-68.4-68.4-68.4C40.6,112.6,10,143.2,10,180.9z"/><path d="M10,500c0,37.8,30.6,68.4,68.4,68.4c37.8,0,68.4-30.6,68.4-68.4c0-37.8-30.6-68.4-68.4-68.4C40.6,431.6,10,462.2,10,500L10,500z"/><path d="M10,819.1c0,37.8,30.6,68.4,68.4,68.4c37.8,0,68.4-30.6,68.4-68.4s-30.6-68.4-68.4-68.4C40.6,750.7,10,781.3,10,819.1z"/><path d="M944.4,226.5H329.1c-25.1,0-45.6-20.5-45.6-45.6l0,0c0-25.1,20.5-45.6,45.6-45.6h615.3c25.1,0,45.6,20.5,45.6,45.6l0,0C990,206,969.5,226.5,944.4,226.5z"/><path d="M944.4,545.6H329.1c-25.1,0-45.6-20.5-45.6-45.6l0,0c0-25.1,20.5-45.6,45.6-45.6h615.3c25.1,0,45.6,20.5,45.6,45.6l0,0C990,525.1,969.5,545.6,944.4,545.6z"/><path d="M944.4,864.7H329.1c-25.1,0-45.6-20.5-45.6-45.6l0,0c0-25.1,20.5-45.6,45.6-45.6h615.3c25.1,0,45.6,20.5,45.6,45.6l0,0C990,844.1,969.5,864.7,944.4,864.7z"/></g>
</svg>