<svg width="1000" height="1000" xmlns="http://www.w3.org/2000/svg">
 <metadata>Svg Vector Icons : http://www.onlinewebfonts.com/icon</metadata>

 <g>
  <title>background</title>
  <rect fill="none" id="canvas_background" height="402" width="582" y="-1" x="-1"/>
 </g>
 <g>
  <title>Layer 1</title>
  <g id="svg_1">
   <path fill="#ffffff" id="svg_2" d="m10,180.9c0,37.8 30.6,68.4 68.4,68.4c37.8,0 68.4,-30.6 68.4,-68.4c0,-37.8 -30.6,-68.4 -68.4,-68.4c-37.8,0.1 -68.4,30.7 -68.4,68.4z"/>
   <path fill="#ffffff" id="svg_3" d="m10,500c0,37.8 30.6,68.4 68.4,68.4c37.8,0 68.4,-30.6 68.4,-68.4c0,-37.8 -30.6,-68.4 -68.4,-68.4c-37.8,0 -68.4,30.6 -68.4,68.4l0,0z"/>
   <path fill="#ffffff" id="svg_4" d="m10,819.1c0,37.8 30.6,68.4 68.4,68.4c37.8,0 68.4,-30.6 68.4,-68.4s-30.6,-68.4 -68.4,-68.4c-37.8,0 -68.4,30.6 -68.4,68.4z"/>
   <path fill="#ffffff" id="svg_5" d="m944.4,226.5l-615.3,0c-25.1,0 -45.6,-20.5 -45.6,-45.6l0,0c0,-25.1 20.5,-45.6 45.6,-45.6l615.3,0c25.1,0 45.6,20.5 45.6,45.6l0,0c0,25.1 -20.5,45.6 -45.6,45.6z"/>
   <path fill="#ffffff" id="svg_6" d="m944.4,545.6l-615.3,0c-25.1,0 -45.6,-20.5 -45.6,-45.6l0,0c0,-25.1 20.5,-45.6 45.6,-45.6l615.3,0c25.1,0 45.6,20.5 45.6,45.6l0,0c0,25.1 -20.5,45.6 -45.6,45.6z"/>
   <path fill="#ffffff" id="svg_7" d="m944.4,864.7l-615.3,0c-25.1,0 -45.6,-20.5 -45.6,-45.6l0,0c0,-25.1 20.5,-45.6 45.6,-45.6l615.3,0c25.1,0 45.6,20.5 45.6,45.6l0,0c0,25 -20.5,45.6 -45.6,45.6z"/>
  </g>
 </g>
</svg>